<?xml version="1.0" encoding="UTF-8"?>
<!DOCTYPE svg PUBLIC "-//W3C//DTD SVG 1.1//EN" "http://www.w3.org/Graphics/SVG/1.1/DTD/svg11.dtd">
<!-- Creator: CorelDRAW 2020 (64 Bit) -->
<svg xmlns="http://www.w3.org/2000/svg" xml:space="preserve" width="197px" height="337px" version="1.1" style="shape-rendering:geometricPrecision; text-rendering:geometricPrecision; image-rendering:optimizeQuality; fill-rule:evenodd; clip-rule:evenodd"
viewBox="0 0 110.46 189.16"
 xmlns:xlink="http://www.w3.org/1999/xlink"
 xmlns:xodm="http://www.corel.com/coreldraw/odm/2003">
 <defs>
  <style type="text/css">
   <![CDATA[
    .fil0 {fill:black}
   ]]>
  </style>
 </defs>
 <g id="Camada_x0020_1">
  <metadata id="CorelCorpID_0Corel-Layer"/>
  <path class="fil0" d="M28.68 37.48c-2.88,-3.58 -6.14,-7.77 -9.36,-11.63 -1.67,-2 -7.86,-10.49 -9.95,-11.5 -0.59,33.26 -0.13,17.74 9.41,34.65l-1.53 0.76c-0.16,0.05 -0.37,0.12 -0.55,0.16 -0.42,0.11 -1.78,0.23 -2.32,0.27 -2.18,0.17 -2.97,0.1 -4.75,0.7l-0.29 24.72c0.3,5.94 3.67,-6.28 -1.24,17.47l-7.98 37.78c-0.64,3.75 1.46,4.44 3.61,6.76 2.02,2.19 3.57,3.84 5.63,5.97l45.69 45.57 51.15 -51.27c6.73,-6.69 4.49,-3.99 0.09,-25.68 -1.3,-6.39 -2.69,-12.71 -4.13,-19.17 -0.71,-3.22 -1.28,-6.27 -2.03,-9.57 -1.93,-8.42 -0.14,-4.08 0.66,-7.86l-0.03 -25.09 -9.43 -0.94c1.82,-3.8 8.13,-10.37 9.08,-13.1 0.86,-2.49 0.67,-18.9 0.14,-22.04l-18.88 23.03c-1.36,-0.88 -0.4,0.26 -1.88,-1.84 -0.14,-0.19 -1.1,-1.98 -1.47,-2.61 -3.49,-5.89 -18.04,-31.84 -19.8,-33.02 0.01,5.04 -0.62,26.29 0.33,29.37 0.87,2.83 9.33,14.9 10.62,18.62l-10.71 0.09 -0.24 26.61c7.26,2.67 19.58,-1.28 21.83,2.64l1.68 4.77c-8.31,0.4 -13.75,-2.05 -24.88,6.01l5.64 10.98c4.91,-3.54 1.6,-1.76 3.64,-6.04 3.17,0.43 7.86,2.48 10.72,1.63 2.28,-0.68 4.2,-3.8 7.7,-4.77 5.66,8.57 -3.11,12.64 -4.5,20.15l7.61 -1.78c-1.63,22.78 -8.42,22.87 -11.63,29.81 -5.88,-1.78 -1.99,-4.42 -9.19,-7.25 -15.03,-5.92 -9.28,-5.86 -23.02,-0.46 -5.62,2.2 -5.76,5.08 -9.02,7.32 -0.13,-2.71 -0.24,-5.53 -0.31,-8.24 -0.11,-4.24 -0.13,-4.08 2.11,-6.3 2.96,-2.93 5.52,-5.84 9.07,-8.13 2.23,0.59 7.96,3.79 8.96,3.85 1.75,0.12 6.92,-3.11 9.46,-3.84l10.9 10.44c1.89,-12.06 -0.05,-12.62 -2.7,-15.76 -1.35,-1.6 -1.42,-2.55 -3.43,-3.62 -2.99,3.54 -1.21,5.05 -7.4,2.75 -5.01,-1.86 -1.84,0.47 -7.55,1.47l-1 -22.22c-11.91,-7.45 -14.42,-5.88 -24.83,-6l1.73 -6.06 21.32 -0.77c1.4,-4.27 0.35,-21.15 0.4,-26.86l-10.96 -0.29 10.63 -18.74c0.95,-3.11 0.31,-24.29 0.32,-29.36 -1.72,1.13 -9.83,15.72 -11.29,18.32l-9.64 16.93c-0.04,0.05 -0.9,1.14 -0.94,1.18 -0.98,1 0.04,0.18 -1.27,1.03zm26.21 142.23l48.38 -48.25 -2.57 -13.03c-1.36,1.9 -1.31,2.88 -1.9,5.91 -1.5,7.81 -1.63,6.19 -9.33,13.87 -3.76,3.75 -11.92,12.74 -15.6,15.19 -0.16,-5.57 0.21,-5.78 -5.76,-13.31 -1.96,-2.48 -2.66,-2.27 -5.94,-3.6 -8.24,-3.31 -5.82,-3.39 -13.57,-0.25 -8.47,3.43 -5,2.27 -10.15,8.93 -2.73,3.52 -2.33,2.76 -2.24,8.19 -3.02,-1.01 -12.7,-11.88 -15.65,-14.83 -14.33,-14.36 -6.09,-7.56 -10.9,-20.39 -1.12,2.34 -2.12,7.74 -2.7,10.62 -0.57,2.85 -0.53,2.75 1.12,4.48l46.81 46.47zm-20.52 -68.32l1.75 -1.97c2.76,-3.77 8.89,-11.87 7.8,-16.16 -3.01,0.01 -8.52,2.07 -10.51,1.55 -1.76,-0.46 -5.57,-3.88 -7.91,-5.08l-1.65 2.7c-0.62,1.4 -0.96,2.23 -0.81,3.49 0.1,0.77 2.37,5.1 2.8,5.96 2.41,4.95 3.02,7.91 8.53,9.51zm44.1 -89.28l3.41 6.62c0.38,-0.23 0.58,-0.57 0.63,-0.45l0.74 -0.67c1.98,-1.99 8.48,-9.86 8.93,-11.66l-13.71 6.16zm-50.24 6.39c1.56,-1.92 2.68,-3.77 3.42,-6.1l-13.43 -6.42c0.84,2.29 5.12,7.35 6.94,9.49l3.07 3.03z"/>
 </g>
</svg>
